<?xml version="1.0" encoding="UTF-8" standalone="no"?>
{% assign stroke_color = include.stroke_color or "#000000" %}
<svg
   xmlns:dc="http://purl.org/dc/elements/1.1/"
   xmlns:cc="http://creativecommons.org/ns#"
   xmlns:rdf="http://www.w3.org/1999/02/22-rdf-syntax-ns#"
   xmlns:svg="http://www.w3.org/2000/svg"
   xmlns="http://www.w3.org/2000/svg"
   xmlns:xlink="http://www.w3.org/1999/xlink"
   xmlns:sodipodi="http://sodipodi.sourceforge.net/DTD/sodipodi-0.dtd"
   xmlns:inkscape="http://www.inkscape.org/namespaces/inkscape"
   width="288"
   height="48"
   viewBox="0 0 288 48"
   version="1.1"
   id="svg8"
   inkscape:version="1.0.2 (e86c8708, 2021-01-15)"
   sodipodi:docname="book.svg">
  <style
     id="style833">
     .lineart {
        fill: none;
        stroke: {{ stroke_color }};
        stroke-width: 2;
        stroke-linecap: round;
        stroke-linejoin: round;
        stroke-miterlimit: 4;
        stroke-dasharray: none;
        paint-order: stroke fill markers;
     }
  </style>
  <defs
     id="defs2" />
  <sodipodi:namedview
     id="base"
     pagecolor="#ffffff"
     bordercolor="#666666"
     borderopacity="1.0"
     inkscape:pageopacity="0.0"
     inkscape:pageshadow="2"
     inkscape:zoom="1"
     inkscape:cx="144"
     inkscape:cy="24"
     inkscape:document-units="px"
     inkscape:current-layer="layer1"
     inkscape:document-rotation="0"
     showgrid="false"
     units="px"
     inkscape:showpageshadow="false"
     inkscape:snap-midpoints="true"
     inkscape:snap-smooth-nodes="true"
     inkscape:snap-global="true"
     inkscape:object-paths="true"
     inkscape:snap-intersection-paths="false"
     showguides="true"
     inkscape:snap-center="true">
    <inkscape:grid
       type="xygrid"
       id="grid1198"
       originx="0"
       originy="0"
       spacingx="1"
       spacingy="1"
       empspacing="4" />
  </sodipodi:namedview>
  <metadata
     id="metadata5">
    <rdf:RDF>
      <cc:Work
         rdf:about="">
        <dc:format>image/svg+xml</dc:format>
        <dc:type
           rdf:resource="http://purl.org/dc/dcmitype/StillImage" />
        <dc:title />
      </cc:Work>
    </rdf:RDF>
  </metadata>
  <g
     inkscape:label="Layer 1"
     inkscape:groupmode="layer"
     id="layer1">
    <g
       id="g1995">
      <path
         class="lineart"
         id="path1628"
         sodipodi:type="arc"
         sodipodi:cx="18"
         sodipodi:cy="-34.999783"
         sodipodi:rx="3"
         sodipodi:ry="3"
         sodipodi:start="3.1415927"
         sodipodi:end="4.712389"
         sodipodi:arc-type="arc"
         sodipodi:open="true"
         transform="scale(1,-1)"
         d="m 15,-34.999783 a 3,3 0 0 1 3,-3" />
      <path
         class="lineart"
         d="M 18,37.999781 H 33"
         id="path854" />
      <path
         class="lineart"
         d="m 26,35.00022 h 5.5"
         id="path1053"
         sodipodi:nodetypes="cc" />
      <path
         class="lineart"
         id="path874"
         sodipodi:type="arc"
         sodipodi:cx="33"
         sodipodi:cy="35.000221"
         sodipodi:rx="1.5"
         sodipodi:ry="3"
         sodipodi:start="1.5707963"
         sodipodi:end="4.712389"
         sodipodi:arc-type="arc"
         sodipodi:open="true"
         d="m 33,38.000221 a 1.5,3 0 0 1 -1.299038,-1.5 1.5,3 0 0 1 0,-3 1.5,3 0 0 1 1.299038,-1.5" />
      <g
         id="g1638"
         inkscape:transform-center-x="-9"
         inkscape:transform-center-y="-12.5"
         transform="translate(0,-2.1934509e-4)">
        <path
           class="lineart"
           id="path871"
           sodipodi:type="arc"
           sodipodi:cx="18"
           sodipodi:cy="15"
           sodipodi:rx="3"
           sodipodi:ry="3"
           sodipodi:start="3.1415927"
           sodipodi:end="4.712389"
           sodipodi:arc-type="arc"
           sodipodi:open="true"
           d="m 15,15 a 3,3 0 0 1 3,-3" />
        <path
           class="lineart"
           d="M 15,15 V 35"
           id="rect898"
           sodipodi:nodetypes="cc" />
        <path
           class="lineart"
           id="path869"
           sodipodi:type="arc"
           sodipodi:cx="18"
           sodipodi:cy="35"
           sodipodi:rx="3"
           sodipodi:ry="3"
           sodipodi:start="3.1415927"
           sodipodi:end="4.712389"
           sodipodi:arc-type="arc"
           sodipodi:open="true"
           d="m 15,35 a 3,3 0 0 1 3,-3" />
        <path
           class="lineart"
           d="m 18,32 15,4.37e-4 V 12 h -5"
           id="path861"
           sodipodi:nodetypes="cccc" />
        <path
           class="lineart"
           d="m 20,22 3,-2 3,2 V 10 h -6 z"
           id="rect850"
           sodipodi:nodetypes="cccccc" />
      </g>
    </g>
    <g
       id="g2092"
       transform="translate(1)">
      <use
         x="0"
         y="0"
         xlink:href="#path1628"
         id="use2072"
         transform="translate(48)"
         width="100%"
         height="100%" />
      <use
         x="0"
         y="0"
         xlink:href="#path854"
         id="use2074"
         transform="translate(48)"
         width="100%"
         height="100%" />
      <path
         class="lineart"
         d="m 76,34.5 h 3.5"
         id="use2076"
         sodipodi:nodetypes="cc" />
      <path
         class="lineart"
         id="use2078"
         sodipodi:type="arc"
         sodipodi:cx="81"
         sodipodi:cy="34"
         sodipodi:rx="1.5"
         sodipodi:ry="4"
         sodipodi:start="1.5707963"
         sodipodi:end="4.712389"
         sodipodi:arc-type="arc"
         sodipodi:open="true"
         d="m 81,38 a 1.5,4 0 0 1 -1.299038,-2 1.5,4 0 0 1 0,-4 A 1.5,4 0 0 1 81,30" />
      <use
         x="0"
         y="0"
         xlink:href="#g1638"
         inkscape:transform-center-x="-9"
         inkscape:transform-center-y="-13.111111"
         id="use2080"
         transform="matrix(1,-0.11111106,0,1,48,1.666666)"
         width="100%"
         height="100%" />
    </g>
    <g
       id="g2108"
       transform="translate(52)">
      <use
         x="0"
         y="0"
         xlink:href="#path1628"
         id="use2098"
         transform="translate(48)"
         width="100%"
         height="100%" />
      <use
         x="0"
         y="0"
         xlink:href="#path854"
         id="use2100"
         transform="translate(48)"
         width="100%"
         height="100%" />
      <path
         class="lineart"
         d="m 78,34 h 1.5"
         id="path2102"
         sodipodi:nodetypes="cc" />
      <path
         class="lineart"
         id="path2104"
         sodipodi:type="arc"
         sodipodi:cx="81"
         sodipodi:cy="33"
         sodipodi:rx="1.5"
         sodipodi:ry="5"
         sodipodi:start="1.5707963"
         sodipodi:end="4.712389"
         sodipodi:arc-type="arc"
         sodipodi:open="true"
         d="m 81,38 a 1.5,5 0 0 1 -1.299038,-2.5 1.5,5 0 0 1 0,-5 A 1.5,5 0 0 1 81,28" />
      <use
         x="0"
         y="0"
         xlink:href="#g1638"
         inkscape:transform-center-x="-9"
         inkscape:transform-center-y="-13.722222"
         id="use2106"
         transform="matrix(1,-0.22222218,0,1,48,3.3333328)"
         width="100%"
         height="100%" />
    </g>
    <g
       id="g2222"
       transform="translate(-89)">
      <use
         x="0"
         y="0"
         xlink:href="#path1047"
         id="use2216"
         transform="translate(240)"
         width="100%"
         height="100%" />
      <use
         x="0"
         y="0"
         xlink:href="#g1863"
         inkscape:transform-center-x="-6"
         inkscape:transform-center-y="-14.466666"
         id="use2218"
         transform="matrix(1,-0.26666663,0,1,240,4.7999994)"
         width="100%"
         height="100%" />
      <use
         x="0"
         y="0"
         xlink:href="#g1875"
         inkscape:transform-center-x="6"
         inkscape:transform-center-y="-15.066666"
         id="use2220"
         transform="matrix(1,0.26666663,0,1,240,-3.1999996)"
         width="100%"
         height="100%" />
    </g>
    <g
       id="g2210"
       transform="translate(-39)">
      <use
         x="0"
         y="0"
         xlink:href="#path1047"
         id="use2198"
         transform="translate(240)"
         width="100%"
         height="100%" />
      <use
         x="0"
         y="0"
         xlink:href="#g1863"
         inkscape:transform-center-x="-6"
         inkscape:transform-center-y="-13.733333"
         id="use2200"
         transform="matrix(1,-0.1333333,0,1,240,2.3999994)"
         width="100%"
         height="100%" />
      <use
         x="0"
         y="0"
         xlink:href="#g1875"
         inkscape:transform-center-x="6"
         inkscape:transform-center-y="-14.533333"
         id="use2202"
         transform="matrix(1,0.1333333,0,1,240,-1.5999996)"
         width="100%"
         height="100%" />
    </g>
    <g
       id="g943"
       transform="translate(249)">
      <path
         class="lineart"
         id="path1047"
         sodipodi:type="arc"
         sodipodi:cx="15.000001"
         sodipodi:cy="38"
         sodipodi:rx="2.9999995"
         sodipodi:ry="0.5"
         sodipodi:start="0"
         sodipodi:end="3.1415927"
         sodipodi:arc-type="arc"
         d="m 18,38 a 2.9999995,0.5 0 0 1 -1.499999,0.433013 2.9999995,0.5 0 0 1 -3,0 2.9999995,0.5 0 0 1 -1.5,-0.433013"
         sodipodi:open="true" />
      <g
         id="g1863"
         transform="translate(-2)"
         inkscape:transform-center-x="-6"
         inkscape:transform-center-y="-13">
        <path
           class="lineart"
           d="m 33,14 h 2 V 37.999999 H 20"
           id="path854-5"
           sodipodi:nodetypes="cccc" />
        <path
           class="lineart"
           d="M 17,35 V 15"
           id="path929"
           sodipodi:nodetypes="cc" />
        <path
           class="lineart"
           id="path931"
           sodipodi:type="arc"
           sodipodi:cx="20"
           sodipodi:cy="15"
           sodipodi:rx="3"
           sodipodi:ry="3"
           sodipodi:start="3.1415927"
           sodipodi:end="4.712389"
           sodipodi:arc-type="arc"
           sodipodi:open="true"
           d="m 17,15 a 3,3 0 0 1 3,-3" />
        <path
           class="lineart"
           d="M 20,12 H 31.000001 V 34.000437 L 21,34"
           id="path861-0"
           sodipodi:nodetypes="cccc" />
        <path
           class="lineart"
           id="path1223"
           sodipodi:type="arc"
           sodipodi:cx="21"
           sodipodi:cy="35"
           sodipodi:rx="4"
           sodipodi:ry="1"
           sodipodi:start="3.1415927"
           sodipodi:end="4.712389"
           sodipodi:arc-type="arc"
           sodipodi:open="true"
           d="m 17,35 a 4,1 0 0 1 4,-1" />
      </g>
      <g
         id="g1875"
         transform="matrix(-1,0,0,1,32,0)"
         inkscape:transform-center-x="6"
         inkscape:transform-center-y="-14">
        <path
           class="lineart"
           d="m 33,14 h 2 V 37.999999 H 20"
           id="path1865"
           sodipodi:nodetypes="cccc" />
        <path
           class="lineart"
           d="M 17,35 V 15"
           id="path1867"
           sodipodi:nodetypes="cc" />
        <path
           class="lineart"
           id="path1869"
           sodipodi:type="arc"
           sodipodi:cx="20"
           sodipodi:cy="15"
           sodipodi:rx="3"
           sodipodi:ry="3"
           sodipodi:start="3.1415927"
           sodipodi:end="4.712389"
           sodipodi:arc-type="arc"
           sodipodi:open="true"
           d="m 17,15 a 3,3 0 0 1 3,-3" />
        <path
           class="lineart"
           d="m 29.999999,12 h 1.000002 V 34.000437 L 21,34"
           id="path1871"
           sodipodi:nodetypes="cccc" />
        <path
           class="lineart"
           id="path1873"
           sodipodi:type="arc"
           sodipodi:cx="21"
           sodipodi:cy="35"
           sodipodi:rx="4"
           sodipodi:ry="1"
           sodipodi:start="3.1415927"
           sodipodi:end="4.712389"
           sodipodi:arc-type="arc"
           sodipodi:open="true"
           d="m 17,35 a 4,1 0 0 1 4,-1" />
        <path
           class="lineart"
           d="m 27.999999,22 -3,-2 -3,2 V 10 h 6 z"
           id="rect850-9"
           sodipodi:nodetypes="cccccc" />
      </g>
    </g>
  </g>
</svg>
