<?xml version="1.0" encoding="UTF-8" standalone="no"?>
<!-- Created with Inkscape (http://www.inkscape.org/) -->
{% assign stroke_color = include.stroke_color or "#000000" %}
<svg
   width="288"
   height="48"
   viewBox="0 0 288 48"
   version="1.1"
   id="svg391"
   inkscape:version="1.1 (c4e8f9e, 2021-05-24)"
   sodipodi:docname="chat.svg"
   xmlns:inkscape="http://www.inkscape.org/namespaces/inkscape"
   xmlns:sodipodi="http://sodipodi.sourceforge.net/DTD/sodipodi-0.dtd"
   xmlns="http://www.w3.org/2000/svg"
   xmlns:svg="http://www.w3.org/2000/svg">
  <style
     id="style9">
     .lineart {
        fill: none;
        stroke: {{ stroke_color }};
        stroke-width: 2;
        stroke-linecap: round;
        stroke-linejoin: round;
        stroke-miterlimit: 4;
        stroke-dasharray: none;
        paint-order: stroke fill markers;
     }
  </style>
  <sodipodi:namedview
     id="namedview393"
     pagecolor="#ffffff"
     bordercolor="#666666"
     borderopacity="1.0"
     inkscape:pageshadow="2"
     inkscape:pageopacity="0.0"
     inkscape:pagecheckerboard="0"
     inkscape:document-units="px"
     showgrid="false"
     units="px"
     width="288px"
     inkscape:showpageshadow="false"
     inkscape:zoom="1"
     inkscape:cx="144"
     inkscape:cy="23.5"
     inkscape:current-layer="layer1">
    <inkscape:grid
       type="xygrid"
       id="grid645"
       empspacing="4"
       originx="0"
       originy="0"
       spacingx="1"
       spacingy="1" />
    <inkscape:grid
       type="xygrid"
       id="grid647"
       originx="0"
       originy="0"
       spacingx="48"
       spacingy="48"
       empspacing="12" />
  </sodipodi:namedview>
  <defs
     id="defs388">
    <inkscape:path-effect
       effect="spiro"
       id="path-effect14310"
       is_visible="true"
       lpeversion="1" />
    <inkscape:path-effect
       effect="spiro"
       id="path-effect1774"
       is_visible="true"
       lpeversion="1" />
    <inkscape:path-effect
       effect="spiro"
       id="path-effect13902"
       is_visible="true"
       lpeversion="1" />
    <inkscape:path-effect
       effect="spiro"
       id="path-effect4282"
       is_visible="true"
       lpeversion="1" />
    <inkscape:path-effect
       effect="spiro"
       id="path-effect13194"
       is_visible="true"
       lpeversion="1" />
    <inkscape:path-effect
       effect="spiro"
       id="path-effect13032"
       is_visible="true"
       lpeversion="1" />
    <inkscape:path-effect
       effect="spiro"
       id="path-effect10272"
       is_visible="true"
       lpeversion="1" />
    <inkscape:path-effect
       effect="spiro"
       id="path-effect7967"
       is_visible="true"
       lpeversion="1" />
  </defs>
  <g
     inkscape:label="Layer 1"
     inkscape:groupmode="layer"
     id="layer1">
    <g
       id="g976"
       transform="translate(-7.5,-15.5)">
      <path
         class="lineart"
         d="m 18.507616,46.499635 c -0.463924,1.118667 -1.150423,2.144511 -2.007616,3 -0.856175,0.854474 -1.881957,1.538328 -3,2 1.562473,0.705374 3.28642,1.050163 5,1 1.929472,-0.05648 3.842067,-0.615754 5.497997,-1.607695"
         id="path7965"
         inkscape:path-effect="#path-effect7967"
         inkscape:original-d="m 18.507616,46.499635 c -0.668205,1.334333 -1.337411,1.667667 -2.007616,3 -0.670205,1.332333 -3,2 -3,2 0,0 3.334333,0.667667 5,1 1.665667,0.332333 3.666332,-0.737463 5.497997,-1.607695"
         sodipodi:nodetypes="cscsc" />
      <path
         class="lineart"
         id="path7449"
         sodipodi:type="arc"
         sodipodi:cx="31.497997"
         sodipodi:cy="40.499634"
         sodipodi:rx="15"
         sodipodi:ry="12"
         sodipodi:start="2.443461"
         sodipodi:end="2.0943951"
         sodipodi:open="true"
         sodipodi:arc-type="arc"
         d="m 20.00733,48.213085 a 15,12 0 0 1 0.884066,-16.198733 15,12 0 0 1 20.248416,-0.707251 15,12 0 0 1 2.645466,16.07545 15,12 0 0 1 -19.787281,3.509388" />
    </g>
    <g
       id="g982"
       transform="translate(-7.5,-15.5)">
      <path
         class="lineart"
         d="m 65.090162,47.91663 c -0.425263,1.025445 -1.054554,1.965801 -1.840314,2.75 -0.784827,0.783268 -1.725127,1.410134 -2.75,1.833333 1.432267,0.646593 3.012551,0.96265 4.583333,0.916667 1.768682,-0.05178 3.521894,-0.564441 5.03983,-1.473721"
         id="path10264"
         inkscape:path-effect="#path-effect10272"
         inkscape:original-d="m 65.090162,47.91663 c -0.612521,1.223138 -1.22596,1.528694 -1.840314,2.75 -0.614355,1.221305 -2.75,1.833333 -2.75,1.833333 0,0 3.056471,0.612028 4.583333,0.916667 1.526861,0.304638 3.360804,-0.676008 5.03983,-1.473721"
         sodipodi:nodetypes="cscsc" />
      <path
         class="lineart"
         id="path10266"
         sodipodi:type="arc"
         sodipodi:cx="76.998009"
         sodipodi:cy="42.41663"
         sodipodi:rx="13.75"
         sodipodi:ry="11"
         sodipodi:start="2.4783675"
         sodipodi:end="2.0943951"
         sodipodi:open="true"
         sodipodi:arc-type="arc"
         d="M 66.162861,49.188906 A 13.75,11 0 0 1 67.533133,34.437512 13.75,11 0 0 1 86.01882,34.114824 13.75,11 0 0 1 88.192097,48.804362 13.75,11 0 0 1 70.123009,51.942909" />
    </g>
    <g
       id="g990"
       transform="translate(-7.5,-15.5)">
      <path
         class="lineart"
         d="m 110.42096,50.582616 c -0.27062,0.652556 -0.67108,1.250965 -1.17111,1.75 -0.49944,0.498443 -1.09781,0.897358 -1.75,1.166666 0.91144,0.411467 1.91707,0.612594 2.91666,0.583333 1.12553,-0.03295 2.24121,-0.359189 3.20717,-0.937822"
         id="path13024"
         inkscape:path-effect="#path-effect13032"
         inkscape:original-d="m 110.42096,50.582616 c -0.38979,0.77836 -0.78016,0.972805 -1.17111,1.75 -0.39095,0.777194 -1.75,1.166666 -1.75,1.166666 0,0 1.94502,0.389473 2.91666,0.583333 0.97164,0.193861 2.1387,-0.430186 3.20717,-0.937822"
         sodipodi:nodetypes="cscsc" />
      <path
         class="lineart"
         id="path13026"
         sodipodi:type="arc"
         sodipodi:cx="117.99868"
         sodipodi:cy="47.082615"
         sodipodi:rx="8.75"
         sodipodi:ry="7"
         sodipodi:start="2.6179939"
         sodipodi:end="2.0943951"
         sodipodi:open="true"
         sodipodi:arc-type="arc"
         d="m 110.42096,50.582615 a 8.75,7 0 0 1 2.25106,-9.053474 8.75,7 0 0 1 11.51384,0.603726 8.75,7 0 0 1 0.75466,9.211078 8.75,7 0 0 1 -11.31684,1.800848" />
      <ellipse
         class="lineart"
         id="ellipse11160"
         transform="scale(-1,1)"
         cx="-129.49899"
         cy="34.499634"
         ry="1.5"
         rx="1.875" />
    </g>
    <g
       id="g1000"
       transform="translate(-7.5,-15.5)">
      <path
         class="lineart"
         d="m 158.52528,50.478449 c -0.28029,0.675861 -0.69504,1.295642 -1.21293,1.8125 -0.51727,0.516245 -1.13702,0.929407 -1.8125,1.208333 0.94399,0.426163 1.98554,0.634473 3.02083,0.604166 1.16572,-0.03413 2.32125,-0.372018 3.32171,-0.971316"
         id="path13186"
         inkscape:path-effect="#path-effect13194"
         inkscape:original-d="m 158.52528,50.478449 c -0.4037,0.806158 -0.80801,1.007548 -1.21293,1.8125 -0.40492,0.804951 -1.8125,1.208333 -1.8125,1.208333 0,0 2.01449,0.403382 3.02083,0.604166 1.00634,0.200784 2.21508,-0.44555 3.32171,-0.971316"
         sodipodi:nodetypes="cscsc" />
      <path
         class="lineart"
         id="path13188"
         sodipodi:type="arc"
         sodipodi:cx="166.37364"
         sodipodi:cy="46.853447"
         sodipodi:rx="9.0625"
         sodipodi:ry="7.25"
         sodipodi:start="2.6179939"
         sodipodi:end="2.0943951"
         sodipodi:open="true"
         sodipodi:arc-type="arc"
         d="m 158.52529,50.478447 a 9.0625,7.25 0 0 1 2.33145,-9.376812 9.0625,7.25 0 0 1 11.92506,0.625288 9.0625,7.25 0 0 1 0.78161,9.540044 9.0625,7.25 0 0 1 -11.72102,1.865164" />
      <path
         class="lineart"
         id="path8448"
         sodipodi:type="arc"
         sodipodi:cx="188.99425"
         sodipodi:cy="43.84201"
         sodipodi:rx="1.5"
         sodipodi:ry="1"
         sodipodi:start="0"
         sodipodi:end="3.4906585"
         sodipodi:arc-type="chord"
         sodipodi:open="true"
         d="m 190.49425,43.84201 a 1.5,1 0 0 1 -0.90588,0.918217 1.5,1 0 0 1 -1.62349,-0.190843 1.5,1 0 0 1 -0.38017,-1.069394 z" />
      <ellipse
         class="lineart"
         id="path10357"
         transform="scale(-1,1)"
         cx="-177.49899"
         cy="34.499634"
         rx="3.75"
         ry="3" />
    </g>
    <g
       id="g1012"
       transform="translate(-7.5,-15.5)">
      <path
         class="lineart"
         id="path1220"
         sodipodi:type="arc"
         sodipodi:cx="215.12355"
         sodipodi:cy="46.395115"
         sodipodi:rx="9.6875"
         sodipodi:ry="7.7500005"
         sodipodi:start="2.6179939"
         sodipodi:end="4.1887902"
         sodipodi:arc-type="arc"
         sodipodi:open="true"
         d="M 206.73393,50.270115 A 9.6875,7.7500005 0 0 1 210.2798,39.683418" />
      <path
         class="lineart"
         d="m 206.73393,50.270115 c -0.29961,0.722473 -0.74298,1.384997 -1.29658,1.937501 -0.55295,0.551848 -1.21543,0.993504 -1.9375,1.291666 1.0091,0.455554 2.12248,0.67823 3.22917,0.645833 1.24612,-0.03648 2.48133,-0.397675 3.55079,-1.038303"
         id="path13894"
         inkscape:path-effect="#path-effect13902"
         inkscape:original-d="m 206.73393,50.270115 c -0.43154,0.861756 -0.86374,1.077035 -1.29658,1.937501 -0.43284,0.860464 -1.9375,1.291666 -1.9375,1.291666 0,0 2.15342,0.431202 3.22917,0.645833 1.07574,0.214631 2.36784,-0.476278 3.55079,-1.038303"
         sodipodi:nodetypes="cscsc" />
      <path
         class="lineart"
         id="path13896"
         sodipodi:type="arc"
         sodipodi:cx="215.12355"
         sodipodi:cy="46.395115"
         sodipodi:rx="9.6875"
         sodipodi:ry="7.7500005"
         sodipodi:start="0.17453293"
         sodipodi:end="2.0943951"
         sodipodi:arc-type="arc"
         sodipodi:open="true"
         d="m 224.66388,47.740888 a 9.6875,7.7500005 0 0 1 -5.44622,5.678113 9.6875,7.7500005 0 0 1 -8.93786,-0.312189" />
      <path
         class="lineart"
         d="m 237.40684,39.999634 c 0.42527,1.025445 1.05456,1.965801 1.84032,2.75 0.78483,0.783267 1.72513,1.410134 2.75,1.833334 -1.43227,0.646593 -3.01256,0.96265 -4.58334,0.916666 -1.76868,-0.05178 -3.52189,-0.564442 -5.03983,-1.47372"
         id="path4274"
         inkscape:path-effect="#path-effect4282"
         inkscape:original-d="m 237.40684,39.999634 c 0.61252,1.223139 1.22596,1.528695 1.84032,2.75 0.61435,1.221306 2.75,1.833334 2.75,1.833334 0,0 -3.05648,0.612028 -4.58334,0.916666 -1.52686,0.304639 -3.3608,-0.676007 -5.03983,-1.47372"
         sodipodi:nodetypes="cscsc" />
      <path
         class="lineart"
         id="path4276"
         sodipodi:type="arc"
         sodipodi:cx="-225.49899"
         sodipodi:cy="34.499634"
         sodipodi:rx="13.75"
         sodipodi:ry="11"
         sodipodi:start="2.6179939"
         sodipodi:end="2.3561945"
         sodipodi:open="true"
         sodipodi:arc-type="arc"
         transform="scale(-1,1)"
         d="m -237.40684,39.999634 a 13.75,11 0 0 1 4.26876,-14.646166 13.75,11 0 0 1 18.5477,2.44979 13.75,11 0 0 1 -1.84261,14.966614 13.75,11 0 0 1 -18.78872,-0.492064" />
    </g>
    <g
       id="g1024"
       transform="translate(-7.5,-15.5)">
      <path
         class="lineart"
         id="path1351"
         sodipodi:type="arc"
         sodipodi:cx="263.85559"
         sodipodi:cy="46.010788"
         sodipodi:rx="10.142758"
         sodipodi:ry="8.1457787"
         sodipodi:start="2.6179939"
         sodipodi:end="4.0142573"
         sodipodi:arc-type="arc"
         sodipodi:open="true"
         d="m 255.0717,50.083677 a 10.142758,8.1457787 0 0 1 2.26425,-10.312918" />
      <path
         class="lineart"
         d="m 254.97454,49.928042 c -0.3171,0.79671 -0.79358,1.529612 -1.39305,2.142744 -0.59208,0.605569 -1.30364,1.093865 -2.08164,1.428496 1.08005,0.503054 2.27847,0.749774 3.4694,0.714248 1.34279,-0.04006 2.67316,-0.440493 3.81496,-1.148294"
         id="path14302"
         inkscape:path-effect="#path-effect14310"
         inkscape:original-d="m 254.97454,49.928042 c -0.46366,0.953043 -0.92801,1.191127 -1.39305,2.142744 -0.46504,0.951616 -2.08164,1.428496 -2.08164,1.428496 0,0 2.31363,0.47688 3.4694,0.714248 1.15578,0.237368 2.544,-0.526731 3.81496,-1.148294"
         sodipodi:nodetypes="cscsc" />
      <path
         class="lineart"
         id="path14304"
         sodipodi:type="arc"
         sodipodi:cx="263.85559"
         sodipodi:cy="46.010788"
         sodipodi:rx="10.142758"
         sodipodi:ry="8.1457787"
         sodipodi:start="0.34906585"
         sodipodi:end="2.0943951"
         sodipodi:arc-type="arc"
         sodipodi:open="true"
         d="m 273.38667,48.796808 a 10.142758,8.1457787 0 0 1 -6.06205,4.868508 10.142758,8.1457787 0 0 1 -8.54041,-0.600077" />
      <path
         class="lineart"
         d="m 286.48937,40.499635 c 0.46393,1.118667 1.15043,2.144511 2.00762,3 0.85618,0.854473 1.88196,1.538328 3,2 -1.56247,0.705374 -3.28642,1.050163 -5,1 -1.92947,-0.05648 -3.84207,-0.615754 -5.498,-1.607695"
         id="path1766"
         inkscape:path-effect="#path-effect1774"
         inkscape:original-d="m 286.48937,40.499635 c 0.66821,1.334333 1.33741,1.667667 2.00762,3 0.6702,1.332333 3,2 3,2 0,0 -3.33433,0.667667 -5,1 -1.66567,0.332333 -3.66633,-0.737463 -5.498,-1.607695"
         sodipodi:nodetypes="cscsc" />
      <path
         class="lineart"
         id="path1768"
         sodipodi:type="arc"
         sodipodi:cx="-273.49899"
         sodipodi:cy="34.499634"
         sodipodi:rx="15"
         sodipodi:ry="12"
         sodipodi:start="2.6179939"
         sodipodi:end="2.268928"
         sodipodi:open="true"
         sodipodi:arc-type="arc"
         transform="scale(-1,1)"
         d="m -286.48937,40.499634 a 15,12 0 0 1 4.38673,-15.829825 15,12 0 0 1 20.09431,2.116373 15,12 0 0 1 -0.88406,16.198733 15,12 0 0 1 -20.24842,0.707252" />
    </g>
  </g>
</svg>
